<svg width="43" height="43" viewBox="0 0 43 43" fill="none" xmlns="http://www.w3.org/2000/svg">
<circle opacity="0.100028" cx="21.5" cy="21.5" r="21.5" fill="#473BF0"/>
<path d="M22.0563 28C21.9429 28 21.8466 27.966 21.7673 27.898C21.6993 27.8187 21.6653 27.7223 21.6653 27.609V18.089L18.8433 20.265C18.7526 20.333 18.6563 20.3613 18.5543 20.35C18.4523 20.3387 18.3673 20.2877 18.2993 20.197L17.8573 19.636C17.7893 19.534 17.7609 19.432 17.7723 19.33C17.7949 19.228 17.8516 19.143 17.9423 19.075L21.6483 16.219C21.7276 16.1623 21.8013 16.1283 21.8693 16.117C21.9373 16.1057 22.0109 16.1 22.0903 16.1H22.9573C23.0706 16.1 23.1613 16.1397 23.2293 16.219C23.2973 16.287 23.3313 16.3777 23.3313 16.491V27.609C23.3313 27.7223 23.2973 27.8187 23.2293 27.898C23.1613 27.966 23.0706 28 22.9573 28H22.0563Z" fill="#473BF0"/>
</svg>
